<svg width="161" height="41" viewBox="0 0 161 41" fill="none" xmlns="http://www.w3.org/2000/svg">
<path d="M7.50412 6.02686H0V33.874C0 38.8508 2.83282 40.1861 4.24924 40.236H23.7929V33.874H7.50412V6.02686Z" fill="white"/>
<path d="M79.1546 27.818V21.775H93.4678V33.584C93.4678 38.5334 88.4582 40.1453 85.9605 40.195C82.9405 40.2873 75.562 40.195 70.2304 40.195C64.8987 40.195 63.5676 35.7924 63.5676 33.584V12.217C63.5676 7.0404 68.477 5.93974 70.9389 6.03206H89.3599C92.8738 6.03206 93.5608 10.1577 93.4678 12.217V17.138H85.9605V12.217H70.9389V33.584H85.9605V27.818H79.1618H79.1546Z" fill="white"/>
<path d="M160.995 17.0763H154.475V12.3425H139.03V18.5117C138.887 19.1786 140.025 20.5197 145.693 20.5197C158.275 20.4037 161.138 25.8334 160.995 28.5592V34.1556C160.995 39.6651 156.651 40.4697 154.475 40.187H138.608C132.825 40.187 131.572 36.1709 131.665 34.1556V29.5596H138.608V34.1556H154.475V28.5592C154.475 25.5435 146.538 25.6885 139.03 25.6885C133.025 25.6885 131.615 20.9039 131.658 18.5117V12.3425C131.658 7.17377 136.568 5.97764 139.03 6.02838H154.475C158.898 6.02838 160.666 9.47179 160.995 11.1971V17.0835V17.0763Z" fill="white"/>
<path d="M120.511 13.4381V33.4956H104.599V13.4381H120.511ZM97.4614 13.4381C97.4614 13.4381 97.6759 25.8015 97.4614 33.4956C97.254 41.1964 104.07 40.1701 104.07 40.1701C104.07 40.1701 111.801 40.0885 119.982 40.1701C128.164 40.2516 127.585 33.4956 127.585 33.4956C127.585 33.4956 127.706 21.5331 127.585 13.4381C127.463 5.34308 119.982 6.05675 119.982 6.05675H104.07C96.6175 6.04315 97.4614 13.4381 97.4614 13.4381V13.4381Z" fill="white"/>
<path fill-rule="evenodd" clip-rule="evenodd" d="M28.498 33.4872C28.7126 25.7916 28.498 13.4257 28.498 13.4257C28.498 13.4257 27.6539 6.02931 35.108 6.0429H41.9243C37.8807 6.0429 37.8183 8.28646 37.7849 9.48872C37.7841 9.51817 37.7833 9.547 37.7825 9.57516C37.7825 11.7273 39.0015 12.8521 40.3319 13.4257H35.108V33.4872H51.0249V32.73C53.6129 32.5299 57.3666 29.1818 58.6293 27.0664C58.6133 30.4593 58.6293 33.4872 58.6293 33.4872C58.6293 33.4872 59.2087 40.2756 51.0249 40.194C43.8842 40.1229 37.3819 40.1759 35.5827 40.1906C35.3199 40.1927 35.1575 40.194 35.108 40.194C35.0849 40.194 35.0405 40.1976 34.9773 40.2026C33.9787 40.2817 28.3029 40.7314 28.498 33.4872Z" fill="white"/>
<path d="M51.0249 6.0429H41.9243C37.8807 6.0429 37.8183 8.28646 37.7849 9.48872C37.7841 9.51817 37.7833 9.547 37.7825 9.57516C37.7825 11.7273 39.0015 12.8521 40.3319 13.4257C41.3818 13.8784 42.5012 13.9878 43.1453 13.9878C44.1346 13.9878 45.4631 13.8586 46.5809 13.4257C47.7895 12.9576 48.7517 12.1344 48.7716 10.7352C48.8195 7.36885 44.5508 7.98298 43.8396 10.1665C45.3001 9.57516 48.0055 9.43869 46.5211 11.0309C45.0367 12.6231 42.6665 11.6223 42.1877 10.7352C41.7089 9.8481 41.7385 6.0429 51.0249 6.0429Z" fill="#FCB239"/>
<path d="M51.0249 32.73C53.6129 32.5299 57.3666 29.1818 58.6293 27.0664C58.6293 27.0664 59.3574 24.0053 59.3537 21.3118C59.3501 18.6563 58.6293 13.4257 58.6293 13.4257C58.6293 15.8074 55.0442 19.7651 51.0249 21.9259C51.0249 21.9259 50.0165 22.2216 50.0165 27.0664C50.0165 31.9112 51.0249 32.73 51.0249 32.73Z" fill="#FCB239"/>
<path d="M43.8396 10.1665C44.5508 7.98298 48.8195 7.36885 48.7716 10.7352C48.7517 12.1344 47.7895 12.9576 46.5809 13.4257H51.0249V21.9259C55.0442 19.7651 58.6293 15.8074 58.6293 13.4257V0L51.0249 6.0429C41.7385 6.0429 41.7089 9.8481 42.1877 10.7352C42.6665 11.6223 45.0367 12.6231 46.5211 11.0309C48.0055 9.43869 45.3001 9.57516 43.8396 10.1665Z" fill="white"/>
</svg>
