<svg width="214" height="258" viewBox="0 0 214 258" fill="none" xmlns="http://www.w3.org/2000/svg">
<path fill-rule="evenodd" clip-rule="evenodd" d="M50.6797 166.056C51.8156 127.896 50.6797 66.5755 50.6797 66.5755C50.6797 66.5755 46.2117 29.8981 85.6666 29.9656H121.746C100.342 29.9656 100.012 41.0909 99.8356 47.0527C99.8313 47.1987 99.827 47.3417 99.8226 47.4813C99.8226 58.1532 106.275 63.7311 113.317 66.5755H85.6666V166.056H169.915V162.302C183.614 161.309 203.482 144.706 210.166 134.217C210.081 151.042 210.166 166.056 210.166 166.056C210.166 166.056 213.233 199.719 169.915 199.314C132.119 198.961 97.7024 199.224 88.1793 199.297C86.7883 199.308 85.9284 199.314 85.6666 199.314C85.5445 199.314 85.3092 199.332 84.9749 199.357C79.6889 199.749 49.6469 201.979 50.6797 166.056Z" fill="white"/>
<path d="M169.915 29.9656H121.746C100.342 29.9656 100.012 41.0909 99.8356 47.0527C99.8313 47.1987 99.827 47.3417 99.8226 47.4813C99.8226 58.1532 106.275 63.7311 113.317 66.5755C118.874 68.8203 124.799 69.3626 128.209 69.3626C133.445 69.3626 140.477 68.7221 146.393 66.5755C152.79 64.2543 157.883 60.1718 157.988 53.2336C158.242 36.5406 135.648 39.586 131.883 50.4138C139.614 47.4813 153.933 46.8046 146.076 54.6999C138.22 62.5952 125.674 57.6324 123.14 53.2336C120.605 48.8348 120.762 29.9656 169.915 29.9656Z" fill="#FCB239"/>
<path d="M169.915 162.302C183.614 161.309 203.482 144.706 210.166 134.217C210.166 134.217 214.019 119.037 214 105.681C213.981 92.5129 210.166 66.5755 210.166 66.5755C210.166 78.3858 191.19 98.0113 169.915 108.726C169.915 108.726 164.578 110.193 164.578 134.217C164.578 158.241 169.915 162.302 169.915 162.302Z" fill="#FCB239"/>
<path d="M131.883 50.4138C135.648 39.586 158.242 36.5406 157.988 53.2336C157.883 60.1718 152.79 64.2543 146.393 66.5755H169.915V108.726C191.19 98.0113 210.166 78.3858 210.166 66.5755V0L169.915 29.9656C120.762 29.9656 120.605 48.8348 123.14 53.2336C125.674 57.6324 138.22 62.5952 146.076 54.6999C153.933 46.8046 139.614 47.4813 131.883 50.4138Z" fill="white"/>
<path fill-rule="evenodd" clip-rule="evenodd" d="M13.2702 246.727L27.1934 235.892H88.6412C103.027 235.892 110.567 229.668 110.567 218.159V140.872C110.567 130.083 104.211 123.971 92.4171 123.971H22.4915C4.68695 123.971 1.67833e-05 130.404 1.67833e-05 144.89C1.67833e-05 144.89 0.0811964 159.021 0 197.299V257.721L13.2702 246.727ZM27.2732 180.036V214.873H84.0338V144.89H27.2732V180.036Z" fill="#6D5B97"/>
</svg>
