<svg width="312" height="312" viewBox="0 0 312 312" fill="none" xmlns="http://www.w3.org/2000/svg">
<path d="M31.699 70.5168C4.95244 109.479 -0.956287 156.575 11.5192 198.606M31.699 70.5168L87.6618 108.934M31.699 70.5168C58.4455 31.5547 100.271 9.11491 143.978 5.65115M240.953 31.6152C256.87 57.8325 275.949 128.847 224.931 203.165M240.953 31.6152C211.932 25.229 140.645 31.7519 87.6618 108.934M240.953 31.6152C211.389 11.3203 177.142 3.02289 143.978 5.65115M240.953 31.6152L203.414 86.299M240.953 31.6152C270.517 51.9102 290.568 80.8871 300.034 112.78M279.854 240.869C253.108 279.831 211.282 302.271 167.576 305.735M279.854 240.869L224.931 203.165M279.854 240.869C306.601 201.907 312.51 154.811 300.034 112.78M70.6005 279.771C100.165 300.066 134.412 308.363 167.576 305.735M70.6005 279.771L108.414 224.687M70.6005 279.771C41.0365 259.476 20.9854 230.499 11.5192 198.606M70.6005 279.771C95.9041 292.828 162.195 295.787 224.931 203.165M70.6005 279.771C49.2721 263.835 22.8246 207.359 87.6618 108.934M167.576 305.735C163.456 289.233 145.857 249.92 108.414 224.687M108.414 224.687C70.9711 199.454 40.4106 190.376 11.5192 198.606M108.414 224.687L203.414 86.299M224.931 203.165L87.6618 108.934M143.978 5.65115C145.006 20.0312 158.332 56.2927 203.414 86.299M203.414 86.299C219.258 97.4293 260.765 118.308 300.034 112.78" stroke="#6D5B97" stroke-width="10"/>
</svg>
