<svg width="183" height="204" viewBox="0 0 183 204" fill="none" xmlns="http://www.w3.org/2000/svg">
<path d="M13.3637 137.031L23.1213 130.667M13.3637 90.1518H0M23.1213 51.9699L13.3637 46.0305M53.0305 23.9698L45.182 12.7273M90.7882 12.7273V0M128.758 23.9698L137.455 12.7273M158.031 53.4547L170.758 44.3335M168.849 90.1518H182.213M159.304 129.394L170.758 137.031M47.9396 167.789H67.0306M135.122 167.789H114.334M114.334 167.789V189.849C113.98 192.677 111.279 198.334 103.303 198.334M114.334 167.789H67.0306M114.334 167.789L114.334 151.455C122.324 139.93 139.11 115.734 142.334 111.152L142.334 82.0912C141.91 66.9598 131.007 36.782 90.7882 37.1213C50.5699 37.4607 38.182 64.9093 37.1213 82.0912M103.303 198.334C95.3276 198.334 81.8791 198.334 76.1518 198.334M103.303 198.334H76.1518M76.1518 198.334C73.2528 198.193 67.3699 196.298 67.0306 189.849C66.6912 183.401 66.8891 172.455 67.0306 167.789M67.0306 167.789L67.0306 151.455C67.0306 151.455 47.9396 125.788 37.1213 109.243M76.1518 93.7579L90.7882 111.152M90.7882 111.152L107.546 93.7579M90.7882 111.152V142.546M37.1213 82.0912C37.1213 82.0912 37.1213 98.4246 37.1213 109.243M37.1213 82.0912L37.1213 109.243" stroke="#FCB239" stroke-width="10" stroke-linejoin="round"/>
</svg>
