<svg width="200" height="242" viewBox="0 0 200 242" fill="none" xmlns="http://www.w3.org/2000/svg">
<g filter="url(#filter0_d_209_330)">
<rect x="26" y="23" width="144" height="186" rx="16" fill="white"/>
<path fill-rule="evenodd" clip-rule="evenodd" d="M66.4187 123.115C67.0557 101.717 66.4187 67.332 66.4187 67.332C66.4187 67.332 63.9133 46.7653 86.0375 46.8031H106.269C94.2669 46.8031 94.0818 53.0416 93.9827 56.3846C93.9802 56.4665 93.9779 56.5467 93.9754 56.625C93.9754 62.6092 97.5935 65.737 101.542 67.332H86.0375V123.115H133.28V121.01C140.961 120.453 152.102 111.144 155.85 105.262C155.802 114.696 155.85 123.115 155.85 123.115C155.85 123.115 157.57 141.992 133.28 141.765C112.086 141.567 92.7865 141.714 87.4464 141.755C86.6664 141.761 86.1842 141.765 86.0375 141.765C85.969 141.765 85.837 141.774 85.6496 141.788C82.6855 142.008 65.8396 143.259 66.4187 123.115Z" fill="#6D5B97"/>
<path d="M133.28 46.8031H106.269C94.2669 46.8031 94.0818 53.0416 93.9827 56.3846C93.9802 56.4665 93.9779 56.5467 93.9754 56.625C93.9754 62.6092 97.5935 65.737 101.542 67.332C104.659 68.5907 107.981 68.8948 109.893 68.8948C112.829 68.8948 116.772 68.5357 120.089 67.332C123.677 66.0303 126.533 63.7411 126.592 59.8505C126.734 50.49 114.064 52.1977 111.953 58.2694C116.288 56.625 124.318 56.2455 119.912 60.6727C115.506 65.1 108.471 62.3172 107.05 59.8505C105.629 57.3839 105.717 46.8031 133.28 46.8031Z" fill="#FCB239"/>
<path d="M133.28 121.01C140.961 120.453 152.102 111.144 155.85 105.262C155.85 105.262 158.011 96.7498 158 89.2602C157.989 81.8762 155.85 67.332 155.85 67.332C155.85 73.9545 145.209 84.9595 133.28 90.9679C133.28 90.9679 130.287 91.7901 130.287 105.262C130.287 118.733 133.28 121.01 133.28 121.01Z" fill="#FCB239"/>
<path d="M111.953 58.2694C114.064 52.1977 126.734 50.49 126.592 59.8505C126.533 63.7411 123.677 66.0303 120.089 67.332H133.28V90.9679C145.209 84.9595 155.85 73.9545 155.85 67.332V30L133.28 46.8031C105.717 46.8031 105.629 57.3839 107.05 59.8505C108.471 62.3172 115.506 65.1 119.912 60.6727C124.318 56.2455 116.288 56.625 111.953 58.2694Z" fill="#6D5B97"/>
<path fill-rule="evenodd" clip-rule="evenodd" d="M45.4412 168.351L53.2486 162.275H87.7052C95.7717 162.275 100 158.785 100 152.332V108.993C100 102.943 96.4358 99.516 89.8225 99.516H50.612C40.6282 99.516 38 103.123 38 111.246C38 111.246 38.0455 119.17 38 140.635V174.516L45.4412 168.351ZM53.2933 130.954V150.489H85.1216V111.246H53.2933V130.954Z" fill="#D74061"/>
<path d="M73.4451 183.2H81.0771C82.9011 183.2 84.5091 183.552 85.9011 184.256C87.3091 184.944 88.3971 185.92 89.1651 187.184C89.9491 188.448 90.3411 189.92 90.3411 191.6C90.3411 193.28 89.9491 194.752 89.1651 196.016C88.3971 197.28 87.3091 198.264 85.9011 198.968C84.5091 199.656 82.9011 200 81.0771 200H73.4451V183.2ZM80.8851 196.808C82.5651 196.808 83.9011 196.344 84.8931 195.416C85.9011 194.472 86.4051 193.2 86.4051 191.6C86.4051 190 85.9011 188.736 84.8931 187.808C83.9011 186.864 82.5651 186.392 80.8851 186.392H77.3331V196.808H80.8851ZM93.2733 183.2H97.1613V200H93.2733V183.2ZM112.5 191.336H116.052V198.152C115.14 198.84 114.084 199.368 112.884 199.736C111.684 200.104 110.476 200.288 109.26 200.288C107.516 200.288 105.948 199.92 104.556 199.184C103.164 198.432 102.068 197.4 101.268 196.088C100.484 194.76 100.092 193.264 100.092 191.6C100.092 189.936 100.484 188.448 101.268 187.136C102.068 185.808 103.172 184.776 104.58 184.04C105.988 183.288 107.572 182.912 109.332 182.912C110.804 182.912 112.14 183.16 113.34 183.656C114.54 184.152 115.548 184.872 116.364 185.816L113.868 188.12C112.668 186.856 111.22 186.224 109.524 186.224C108.452 186.224 107.5 186.448 106.668 186.896C105.836 187.344 105.188 187.976 104.724 188.792C104.26 189.608 104.028 190.544 104.028 191.6C104.028 192.64 104.26 193.568 104.724 194.384C105.188 195.2 105.828 195.84 106.644 196.304C107.476 196.752 108.42 196.976 109.476 196.976C110.596 196.976 111.604 196.736 112.5 196.256V191.336ZM119.664 183.2H123.552V200H119.664V183.2Z" fill="black"/>
</g>
<defs>
<filter id="filter0_d_209_330" x="0" y="0" width="200" height="242" filterUnits="userSpaceOnUse" color-interpolation-filters="sRGB">
<feFlood flood-opacity="0" result="BackgroundImageFix"/>
<feColorMatrix in="SourceAlpha" type="matrix" values="0 0 0 0 0 0 0 0 0 0 0 0 0 0 0 0 0 0 127 0" result="hardAlpha"/>
<feMorphology radius="8" operator="dilate" in="SourceAlpha" result="effect1_dropShadow_209_330"/>
<feOffset dx="2" dy="5"/>
<feGaussianBlur stdDeviation="10"/>
<feComposite in2="hardAlpha" operator="out"/>
<feColorMatrix type="matrix" values="0 0 0 0 0 0 0 0 0 0 0 0 0 0 0 0 0 0 0.1 0"/>
<feBlend mode="normal" in2="BackgroundImageFix" result="effect1_dropShadow_209_330"/>
<feBlend mode="normal" in="SourceGraphic" in2="effect1_dropShadow_209_330" result="shape"/>
</filter>
</defs>
</svg>
