<svg width="200" height="242" viewBox="0 0 200 242" fill="none" xmlns="http://www.w3.org/2000/svg">
<g filter="url(#filter0_d_209_324)">
<rect x="26" y="23" width="144" height="186" rx="16" fill="white"/>
<path fill-rule="evenodd" clip-rule="evenodd" d="M38.0854 118.115C38.7224 96.7169 38.0854 62.332 38.0854 62.332C38.0854 62.332 35.58 41.7653 57.7042 41.8031H77.9354C65.9336 41.8031 65.7486 48.0416 65.6494 51.3846C65.647 51.4665 65.6446 51.5467 65.6421 51.625C65.6421 57.6092 69.2603 60.737 73.209 62.332H57.7042V118.115H104.946V116.01C112.628 115.453 123.769 106.144 127.517 100.262C127.469 109.696 127.517 118.115 127.517 118.115C127.517 118.115 129.236 136.992 104.946 136.765C83.7523 136.567 64.4533 136.714 59.1132 136.755C58.3332 136.761 57.851 136.765 57.7042 136.765C57.6357 136.765 57.5038 136.774 57.3163 136.788C54.3522 137.008 37.5063 138.259 38.0854 118.115Z" fill="#1180AE"/>
<path d="M104.946 41.8031H77.9354C65.9336 41.8031 65.7486 48.0416 65.6494 51.3846C65.647 51.4665 65.6446 51.5467 65.6421 51.625C65.6421 57.6092 69.2603 60.737 73.209 62.332C76.3253 63.5907 79.6474 63.8948 81.5594 63.8948C84.4955 63.8948 88.4387 63.5357 91.7562 62.332C95.3436 61.0303 98.1993 58.7411 98.2584 54.8505C98.4005 45.49 85.731 47.1977 83.6201 53.2694C87.9548 51.625 95.9845 51.2455 91.5788 55.6727C87.1731 60.1 80.1382 57.3172 78.717 54.8505C77.2958 52.3839 77.3839 41.8031 104.946 41.8031Z" fill="#F37A29"/>
<path d="M104.946 116.01C112.628 115.453 123.769 106.144 127.517 100.262C127.517 100.262 129.677 91.7498 129.667 84.2602C129.656 76.8762 127.517 62.332 127.517 62.332C127.517 68.9545 116.876 79.9595 104.946 85.9679C104.946 85.9679 101.953 86.7901 101.953 100.262C101.953 113.733 104.946 116.01 104.946 116.01Z" fill="#F37A29"/>
<path d="M83.6201 53.2694C85.731 47.1977 98.4005 45.49 98.2584 54.8505C98.1993 58.7411 95.3436 61.0303 91.7562 62.332H104.946V85.9679C116.876 79.9595 127.517 68.9545 127.517 62.332V25L104.946 41.8031C77.3839 41.8031 77.2958 52.3839 78.717 54.8505C80.1382 57.3172 87.1731 60.1 91.5788 55.6727C95.9845 51.2455 87.9548 51.625 83.6201 53.2694Z" fill="#1180AE"/>
<path fill-rule="evenodd" clip-rule="evenodd" d="M97.4412 168.835L105.249 162.759H139.705C147.772 162.759 152 159.269 152 152.816V109.477C152 103.427 148.436 100 141.823 100H102.612C92.6282 100 90 103.607 90 111.73C90 111.73 90.0455 119.654 90 141.119V175L97.4412 168.835ZM105.293 131.438V150.973H137.122V111.73H105.293V131.438Z" fill="#6D5B97"/>
<path d="M86.0781 196.88V200H73.0701V183.2H85.7661V186.32H76.9341V189.968H84.7341V192.992H76.9341V196.88H86.0781ZM89.1717 183.2H96.8037C98.6277 183.2 100.236 183.552 101.628 184.256C103.036 184.944 104.124 185.92 104.892 187.184C105.676 188.448 106.068 189.92 106.068 191.6C106.068 193.28 105.676 194.752 104.892 196.016C104.124 197.28 103.036 198.264 101.628 198.968C100.236 199.656 98.6277 200 96.8037 200H89.1717V183.2ZM96.6117 196.808C98.2917 196.808 99.6277 196.344 100.62 195.416C101.628 194.472 102.132 193.2 102.132 191.6C102.132 190 101.628 188.736 100.62 187.808C99.6277 186.864 98.2917 186.392 96.6117 186.392H93.0597V196.808H96.6117ZM116.464 200.288C114.064 200.288 112.192 199.624 110.848 198.296C109.52 196.968 108.856 195.072 108.856 192.608V183.2H112.744V192.464C112.744 195.472 113.992 196.976 116.488 196.976C117.704 196.976 118.632 196.616 119.272 195.896C119.912 195.16 120.232 194.016 120.232 192.464V183.2H124.072V192.608C124.072 195.072 123.4 196.968 122.056 198.296C120.728 199.624 118.864 200.288 116.464 200.288Z" fill="black"/>
</g>
<defs>
<filter id="filter0_d_209_324" x="0" y="0" width="200" height="242" filterUnits="userSpaceOnUse" color-interpolation-filters="sRGB">
<feFlood flood-opacity="0" result="BackgroundImageFix"/>
<feColorMatrix in="SourceAlpha" type="matrix" values="0 0 0 0 0 0 0 0 0 0 0 0 0 0 0 0 0 0 127 0" result="hardAlpha"/>
<feMorphology radius="8" operator="dilate" in="SourceAlpha" result="effect1_dropShadow_209_324"/>
<feOffset dx="2" dy="5"/>
<feGaussianBlur stdDeviation="10"/>
<feComposite in2="hardAlpha" operator="out"/>
<feColorMatrix type="matrix" values="0 0 0 0 0 0 0 0 0 0 0 0 0 0 0 0 0 0 0.1 0"/>
<feBlend mode="normal" in2="BackgroundImageFix" result="effect1_dropShadow_209_324"/>
<feBlend mode="normal" in="SourceGraphic" in2="effect1_dropShadow_209_324" result="shape"/>
</filter>
</defs>
</svg>
