<svg width="200" height="242" viewBox="0 0 200 242" fill="none" xmlns="http://www.w3.org/2000/svg">
<g filter="url(#filter0_d_209_318)">
<rect x="26" y="23" width="144" height="186" rx="16" fill="white"/>
<path fill-rule="evenodd" clip-rule="evenodd" d="M38.0854 122.115C38.7224 100.717 38.0854 66.332 38.0854 66.332C38.0854 66.332 35.58 45.7653 57.7042 45.8031H77.9354C65.9336 45.8031 65.7486 52.0416 65.6494 55.3846C65.647 55.4665 65.6446 55.5467 65.6421 55.625C65.6421 61.6092 69.2603 64.737 73.209 66.332H57.7042V122.115H104.946V120.01C112.628 119.453 123.769 110.144 127.517 104.262C127.469 113.696 127.517 122.115 127.517 122.115C127.517 122.115 129.236 140.992 104.946 140.765C83.7523 140.567 64.4533 140.714 59.1132 140.755C58.3332 140.761 57.851 140.765 57.7042 140.765C57.6357 140.765 57.5038 140.774 57.3163 140.788C54.3522 141.008 37.5063 142.259 38.0854 122.115Z" fill="#F37A29"/>
<path d="M104.946 45.8031H77.9354C65.9336 45.8031 65.7486 52.0416 65.6494 55.3846C65.647 55.4665 65.6446 55.5467 65.6421 55.625C65.6421 61.6092 69.2603 64.737 73.209 66.332C76.3253 67.5907 79.6474 67.8948 81.5594 67.8948C84.4955 67.8948 88.4387 67.5357 91.7562 66.332C95.3436 65.0303 98.1993 62.7411 98.2584 58.8505C98.4005 49.49 85.731 51.1977 83.6201 57.2694C87.9548 55.625 95.9845 55.2455 91.5788 59.6727C87.1731 64.1 80.1382 61.3172 78.717 58.8505C77.2958 56.3839 77.3839 45.8031 104.946 45.8031Z" fill="#6D5B97"/>
<path d="M104.946 120.01C112.628 119.453 123.769 110.144 127.517 104.262C127.517 104.262 129.677 95.7498 129.667 88.2602C129.656 80.8762 127.517 66.332 127.517 66.332C127.517 72.9545 116.876 83.9595 104.946 89.9679C104.946 89.9679 101.953 90.7901 101.953 104.262C101.953 117.733 104.946 120.01 104.946 120.01Z" fill="#6D5B97"/>
<path d="M83.6201 57.2694C85.731 51.1977 98.4005 49.49 98.2584 58.8505C98.1993 62.7411 95.3436 65.0303 91.7562 66.332H104.946V89.9679C116.876 83.9595 127.517 72.9545 127.517 66.332V29L104.946 45.8031C77.3839 45.8031 77.2958 56.3839 78.717 58.8505C80.1382 61.3172 87.1731 64.1 91.5788 59.6727C95.9845 55.2455 87.9548 55.625 83.6201 57.2694Z" fill="#F37A29"/>
<path fill-rule="evenodd" clip-rule="evenodd" d="M97.4412 168.835L105.249 162.759H139.705C147.772 162.759 152 159.269 152 152.816V109.477C152 103.427 148.436 100 141.823 100H102.612C92.6282 100 90 103.607 90 111.73C90 111.73 90.0455 119.654 90 141.119V175L97.4412 168.835ZM105.293 131.438V150.973H137.122V111.73H105.293V131.438Z" fill="#BED441"/>
<path d="M78.6578 183.2V200H74.7698V193.112H67.1378V200H63.2498V183.2H67.1378V189.824H74.7698V183.2H78.6578ZM95.6406 196.88V200H82.6326V183.2H95.3286V186.32H86.4966V189.968H94.2966V192.992H86.4966V196.88H95.6406ZM98.7342 183.2H102.622V196.832H111.046V200H98.7342V183.2ZM120.491 183.2C121.979 183.2 123.267 183.448 124.355 183.944C125.459 184.44 126.307 185.144 126.899 186.056C127.491 186.968 127.787 188.048 127.787 189.296C127.787 190.528 127.491 191.608 126.899 192.536C126.307 193.448 125.459 194.152 124.355 194.648C123.267 195.128 121.979 195.368 120.491 195.368H117.107V200H113.219V183.2H120.491ZM120.275 192.2C121.443 192.2 122.331 191.952 122.939 191.456C123.547 190.944 123.851 190.224 123.851 189.296C123.851 188.352 123.547 187.632 122.939 187.136C122.331 186.624 121.443 186.368 120.275 186.368H117.107V192.2H120.275ZM130.053 183.2H134.517L133.773 194.168H130.797L130.053 183.2ZM132.285 200.192C131.629 200.192 131.077 199.984 130.629 199.568C130.197 199.136 129.981 198.616 129.981 198.008C129.981 197.4 130.197 196.896 130.629 196.496C131.061 196.08 131.613 195.872 132.285 195.872C132.957 195.872 133.509 196.08 133.941 196.496C134.373 196.896 134.589 197.4 134.589 198.008C134.589 198.616 134.365 199.136 133.917 199.568C133.485 199.984 132.941 200.192 132.285 200.192Z" fill="black"/>
</g>
<defs>
<filter id="filter0_d_209_318" x="0" y="0" width="200" height="242" filterUnits="userSpaceOnUse" color-interpolation-filters="sRGB">
<feFlood flood-opacity="0" result="BackgroundImageFix"/>
<feColorMatrix in="SourceAlpha" type="matrix" values="0 0 0 0 0 0 0 0 0 0 0 0 0 0 0 0 0 0 127 0" result="hardAlpha"/>
<feMorphology radius="8" operator="dilate" in="SourceAlpha" result="effect1_dropShadow_209_318"/>
<feOffset dx="2" dy="5"/>
<feGaussianBlur stdDeviation="10"/>
<feComposite in2="hardAlpha" operator="out"/>
<feColorMatrix type="matrix" values="0 0 0 0 0 0 0 0 0 0 0 0 0 0 0 0 0 0 0.1 0"/>
<feBlend mode="normal" in2="BackgroundImageFix" result="effect1_dropShadow_209_318"/>
<feBlend mode="normal" in="SourceGraphic" in2="effect1_dropShadow_209_318" result="shape"/>
</filter>
</defs>
</svg>
