<svg width="200" height="242" viewBox="0 0 200 242" fill="none" xmlns="http://www.w3.org/2000/svg">
<g filter="url(#filter0_d_209_312)">
<rect x="26" y="23" width="144" height="186" rx="16" fill="white"/>
<path fill-rule="evenodd" clip-rule="evenodd" d="M41.0854 123.115C41.7224 101.717 41.0854 67.332 41.0854 67.332C41.0854 67.332 38.58 46.7653 60.7042 46.8031H80.9354C68.9336 46.8031 68.7486 53.0416 68.6494 56.3846C68.647 56.4665 68.6446 56.5467 68.6421 56.625C68.6421 62.6092 72.2603 65.737 76.209 67.332H60.7042V123.115H107.946V121.01C115.628 120.453 126.769 111.144 130.517 105.262C130.469 114.696 130.517 123.115 130.517 123.115C130.517 123.115 132.236 141.992 107.946 141.765C86.7523 141.567 67.4533 141.714 62.1132 141.755C61.3332 141.761 60.851 141.765 60.7042 141.765C60.6357 141.765 60.5038 141.774 60.3163 141.788C57.3522 142.008 40.5063 143.259 41.0854 123.115Z" fill="#C4C4C4"/>
<path d="M107.946 46.8031H80.9354C68.9336 46.8031 68.7486 53.0416 68.6494 56.3846C68.647 56.4665 68.6446 56.5467 68.6421 56.625C68.6421 62.6092 72.2603 65.737 76.209 67.332C79.3253 68.5907 82.6474 68.8948 84.5594 68.8948C87.4955 68.8948 91.4387 68.5357 94.7562 67.332C98.3436 66.0303 101.199 63.7411 101.258 59.8505C101.4 50.49 88.731 52.1977 86.6201 58.2694C90.9548 56.625 98.9845 56.2455 94.5788 60.6727C90.1731 65.1 83.1382 62.3172 81.717 59.8505C80.2958 57.3839 80.3839 46.8031 107.946 46.8031Z" fill="#F37A29"/>
<path d="M107.946 121.01C115.628 120.453 126.769 111.144 130.517 105.262C130.517 105.262 132.677 96.7498 132.667 89.2602C132.656 81.8762 130.517 67.332 130.517 67.332C130.517 73.9545 119.876 84.9595 107.946 90.9679C107.946 90.9679 104.953 91.7901 104.953 105.262C104.953 118.733 107.946 121.01 107.946 121.01Z" fill="#F37A29"/>
<path d="M86.6201 58.2694C88.731 52.1977 101.4 50.49 101.258 59.8505C101.199 63.7411 98.3436 66.0303 94.7562 67.332H107.946V90.9679C119.876 84.9595 130.517 73.9545 130.517 67.332V30L107.946 46.8031C80.3839 46.8031 80.2958 57.3839 81.717 59.8505C83.1382 62.3172 90.1731 65.1 94.5788 60.6727C98.9845 56.2455 90.9548 56.625 86.6201 58.2694Z" fill="#C4C4C4"/>
<path fill-rule="evenodd" clip-rule="evenodd" d="M100.441 168.835L108.249 162.759H142.705C150.772 162.759 155 159.269 155 152.816V109.477C155 103.427 151.436 100 144.823 100H105.612C95.6282 100 93 103.607 93 111.73C93 111.73 93.0455 119.654 93 141.119V175L100.441 168.835ZM108.293 131.438V150.973H140.122V111.73H108.293V131.438Z" fill="#6D5B97"/>
<path d="M63.6873 183.2H67.5753V200H63.6873V183.2ZM86.9703 183.2V200H83.7783L75.4023 189.8V200H71.5623V183.2H74.7783L83.1303 193.4V183.2H86.9703ZM94.8331 186.32V190.76H102.609V193.88H94.8331V200H90.9451V183.2H103.641V186.32H94.8331ZM116.977 200L113.737 195.32H113.545H110.161V200H106.273V183.2H113.545C115.033 183.2 116.321 183.448 117.409 183.944C118.513 184.44 119.361 185.144 119.953 186.056C120.545 186.968 120.841 188.048 120.841 189.296C120.841 190.544 120.537 191.624 119.929 192.536C119.337 193.432 118.489 194.12 117.385 194.6L121.153 200H116.977ZM116.905 189.296C116.905 188.352 116.601 187.632 115.993 187.136C115.385 186.624 114.497 186.368 113.329 186.368H110.161V192.224H113.329C114.497 192.224 115.385 191.968 115.993 191.456C116.601 190.944 116.905 190.224 116.905 189.296ZM134.986 196.4H127.186L125.698 200H121.714L129.202 183.2H133.042L140.554 200H136.474L134.986 196.4ZM133.762 193.448L131.098 187.016L128.434 193.448H133.762Z" fill="black"/>
</g>
<defs>
<filter id="filter0_d_209_312" x="0" y="0" width="200" height="242" filterUnits="userSpaceOnUse" color-interpolation-filters="sRGB">
<feFlood flood-opacity="0" result="BackgroundImageFix"/>
<feColorMatrix in="SourceAlpha" type="matrix" values="0 0 0 0 0 0 0 0 0 0 0 0 0 0 0 0 0 0 127 0" result="hardAlpha"/>
<feMorphology radius="8" operator="dilate" in="SourceAlpha" result="effect1_dropShadow_209_312"/>
<feOffset dx="2" dy="5"/>
<feGaussianBlur stdDeviation="10"/>
<feComposite in2="hardAlpha" operator="out"/>
<feColorMatrix type="matrix" values="0 0 0 0 0 0 0 0 0 0 0 0 0 0 0 0 0 0 0.1 0"/>
<feBlend mode="normal" in2="BackgroundImageFix" result="effect1_dropShadow_209_312"/>
<feBlend mode="normal" in="SourceGraphic" in2="effect1_dropShadow_209_312" result="shape"/>
</filter>
</defs>
</svg>
