<svg width="200" height="242" viewBox="0 0 200 242" fill="none" xmlns="http://www.w3.org/2000/svg">
<g filter="url(#filter0_d_209_306)">
<rect x="26" y="23" width="144" height="186" rx="16" fill="white"/>
<path fill-rule="evenodd" clip-rule="evenodd" d="M66.4188 123.115C67.0558 101.717 66.4188 67.332 66.4188 67.332C66.4188 67.332 63.9133 46.7653 86.0376 46.8031H106.269C94.267 46.8031 94.0819 53.0416 93.9828 56.3846C93.9803 56.4665 93.9779 56.5467 93.9754 56.625C93.9754 62.6092 97.5936 65.737 101.542 67.332H86.0376V123.115H133.28V121.01C140.961 120.454 152.102 111.144 155.85 105.262C155.802 114.696 155.85 123.115 155.85 123.115C155.85 123.115 157.57 141.992 133.28 141.765C112.086 141.567 92.7866 141.714 87.4465 141.755C86.6665 141.761 86.1843 141.765 86.0376 141.765C85.9691 141.765 85.8371 141.774 85.6497 141.788C82.6856 142.008 65.8397 143.259 66.4188 123.115Z" fill="#BED441"/>
<path d="M133.28 46.8031H106.269C94.267 46.8031 94.0819 53.0416 93.9828 56.3846C93.9803 56.4665 93.9779 56.5467 93.9754 56.625C93.9754 62.6092 97.5936 65.737 101.542 67.332C104.659 68.5907 107.981 68.8948 109.893 68.8948C112.829 68.8948 116.772 68.5357 120.09 67.332C123.677 66.0303 126.533 63.7411 126.592 59.8505C126.734 50.49 114.064 52.1977 111.953 58.2694C116.288 56.625 124.318 56.2455 119.912 60.6727C115.506 65.1 108.472 62.3172 107.05 59.8505C105.629 57.3839 105.717 46.8031 133.28 46.8031Z" fill="#F37A29"/>
<path d="M133.28 121.01C140.961 120.454 152.102 111.144 155.85 105.262C155.85 105.262 158.011 96.7498 158 89.2602C157.989 81.8762 155.85 67.332 155.85 67.332C155.85 73.9545 145.209 84.9595 133.28 90.9679C133.28 90.9679 130.287 91.7901 130.287 105.262C130.287 118.733 133.28 121.01 133.28 121.01Z" fill="#F37A29"/>
<path d="M111.953 58.2694C114.064 52.1977 126.734 50.49 126.592 59.8505C126.533 63.7411 123.677 66.0303 120.09 67.332H133.28V90.9679C145.209 84.9595 155.85 73.9545 155.85 67.332V30L133.28 46.8031C105.717 46.8031 105.629 57.3839 107.05 59.8505C108.472 62.3172 115.506 65.1 119.912 60.6727C124.318 56.2455 116.288 56.625 111.953 58.2694Z" fill="#BED441"/>
<path fill-rule="evenodd" clip-rule="evenodd" d="M45.4412 168.351L53.2486 162.275H87.7052C95.7717 162.275 100 158.785 100 152.332V108.993C100 102.943 96.4358 99.516 89.8225 99.516H50.612C40.6282 99.516 38 103.123 38 111.246C38 111.246 38.0455 119.17 38 140.635V174.516L45.4412 168.351ZM53.2933 130.954V150.489H85.1216V111.246H53.2933V130.954Z" fill="#1180AE"/>
<path d="M70.0345 186.368H64.6585V183.2H79.2985V186.368H73.9225V200H70.0345V186.368ZM94.3984 196.88V200H81.3904V183.2H94.0864V186.32H85.2544V189.968H93.0544V192.992H85.2544V196.88H94.3984ZM105.485 200.288C103.773 200.288 102.221 199.92 100.829 199.184C99.4531 198.432 98.3651 197.4 97.5651 196.088C96.7811 194.76 96.3891 193.264 96.3891 191.6C96.3891 189.936 96.7811 188.448 97.5651 187.136C98.3651 185.808 99.4531 184.776 100.829 184.04C102.221 183.288 103.781 182.912 105.509 182.912C106.965 182.912 108.277 183.168 109.445 183.68C110.629 184.192 111.621 184.928 112.421 185.888L109.925 188.192C108.789 186.88 107.381 186.224 105.701 186.224C104.661 186.224 103.733 186.456 102.917 186.92C102.101 187.368 101.461 188 100.997 188.816C100.549 189.632 100.325 190.56 100.325 191.6C100.325 192.64 100.549 193.568 100.997 194.384C101.461 195.2 102.101 195.84 102.917 196.304C103.733 196.752 104.661 196.976 105.701 196.976C107.381 196.976 108.789 196.312 109.925 194.984L112.421 197.288C111.621 198.264 110.629 199.008 109.445 199.52C108.261 200.032 106.941 200.288 105.485 200.288ZM130.455 183.2V200H126.567V193.112H118.935V200H115.047V183.2H118.935V189.824H126.567V183.2H130.455Z" fill="black"/>
</g>
<defs>
<filter id="filter0_d_209_306" x="0" y="0" width="200" height="242" filterUnits="userSpaceOnUse" color-interpolation-filters="sRGB">
<feFlood flood-opacity="0" result="BackgroundImageFix"/>
<feColorMatrix in="SourceAlpha" type="matrix" values="0 0 0 0 0 0 0 0 0 0 0 0 0 0 0 0 0 0 127 0" result="hardAlpha"/>
<feMorphology radius="8" operator="dilate" in="SourceAlpha" result="effect1_dropShadow_209_306"/>
<feOffset dx="2" dy="5"/>
<feGaussianBlur stdDeviation="10"/>
<feComposite in2="hardAlpha" operator="out"/>
<feColorMatrix type="matrix" values="0 0 0 0 0 0 0 0 0 0 0 0 0 0 0 0 0 0 0.1 0"/>
<feBlend mode="normal" in2="BackgroundImageFix" result="effect1_dropShadow_209_306"/>
<feBlend mode="normal" in="SourceGraphic" in2="effect1_dropShadow_209_306" result="shape"/>
</filter>
</defs>
</svg>
